Coordinates

Units are S.I. units (second, meters, Newtons, ...)
If the header above contains a line with 'inDegrees', this indicates whether rotational values are in degrees (yes) or radians (no).

inDegrees=no
nColumns=22
nRows=22
DataType=double
version=3
OpenSimVersion=4.6-2026-03-31-d6972f9e6
endheader
time	/jointset/ground_pelvis/pelvis_tilt/value	/jointset/ground_pelvis/pelvis_list/value	/jointset/ground_pelvis/pelvis_rotation/value	/jointset/ground_pelvis/pelvis_tx/value	/jointset/ground_pelvis/pelvis_ty/value	/jointset/ground_pelvis/pelvis_tz/value	/jointset/hip_r/hip_flexion_r/value	/jointset/hip_r/hip_adduction_r/value	/jointset/hip_r/hip_rotation_r/value	/jointset/walker_knee_r/knee_angle_r/value	/jointset/patellofemoral_r/knee_angle_r_beta/value	/jointset/ankle_r/ankle_angle_r/value	/jointset/hip_l/hip_flexion_l/value	/jointset/hip_l/hip_adduction_l/value	/jointset/hip_l/hip_rotation_l/value	/jointset/walker_knee_l/knee_angle_l/value	/jointset/patellofemoral_l/knee_angle_l_beta/value	/jointset/ankle_l/ankle_angle_l/value	/jointset/back/lumbar_extension/value	/jointset/back/lumbar_bending/value	/jointset/back/lumbar_rotation/value
45.885	-0.1098078029231962	0.1266301402916969	3.107692587533499	-3.300810638179605	0.5990362125628893	2.481888993061669	1.179459963764305	-0.1947878034817991	0.002974634941532286	2.051881717034011	2.051881716075214	0.3953096463744644	1.373871019892107	-0.4416370551211253	0.2871278164553085	2.072149580830594	2.072149581075102	0.4738712484761228	-1.251315120526315	0.002212850001988461	0.1474277211695334
45.89	-0.110267957239	0.1264680437374666	3.107863293699576	-3.300669417844967	0.5987801762354249	2.481756413834665	1.179600292406831	-0.1946123483316001	0.003394962006158833	2.05242350265171	2.05242350170191	0.3954033104367407	1.373959190874648	-0.4413297900071148	0.2874646408572921	2.072413397539223	2.072413397782398	0.473923147794691	-1.251431603570473	0.001920573877656638	0.1469976496813635
45.895	-0.1107657584457852	0.1263173611455225	3.108078737832929	-3.300535555452683	0.5985996190139281	2.481625849654121	1.179567225036847	-0.1944194340680087	0.003780996477632975	2.052816740364122	2.052816739432456	0.3955072860621243	1.373873468655666	-0.4410018064926935	0.2877545922311008	2.07253821323972	2.072538213466204	0.4739540077292285	-1.251573068503453	0.001672461230003719	0.1465723903788476
45.9	-0.1113014266223379	0.1261817608537626	3.108339838668706	-3.300408954644357	0.598494681541752	2.481497418368257	1.179358775524517	-0.194209043364923	0.00412797845815797	2.053060978801192	2.0530609778971	0.3956207711997929	1.373617182456947	-0.4406576515303052	0.2879993547239956	2.07252473101763	2.072524731211911	0.4739609019902986	-1.251741053276027	0.001471186580170442	0.1461583837050862
45.905	-0.111874575358929	0.1260638125490239	3.108647015442596	-3.300289528063053	0.5984653675704732	2.481371153625732	1.178974314187309	-0.1939812377630274	0.004432524464199458	2.053156146314825	2.053156145447731	0.3957428265787514	1.373193735011855	-0.4403017200509252	0.2881995026722449	2.072373597225819	2.072373597372847	0.4739414335569173	-1.251936215543142	0.001318426472583242	0.1457611643115938
45.91	-0.112484146902469	0.1259649529006281	3.109000137891675	-3.300177199133199	0.5985115406029762	2.48124699937568	1.178414648145854	-0.193736106045748	0.004692689196242815	2.053102526852192	2.053102526031061	0.3958724335887203	1.372606626895727	-0.439938242664499	0.2883544826653786	2.072085390396176	2.072085390481956	0.4738937814604368	-1.25215826210291	0.001214801529373056	0.1453852846543832
45.915	-0.1131283685049401	0.1258854240938593	3.109398493377526	-3.300071903562103	0.5986329237573449	2.48112480718757	1.177682082286711	-0.1934737506078298	0.004908042276842519	2.052900740443465	2.052900739676332	0.3960085393992139	1.371859437469513	-0.4395712479630373	0.2884625619276692	2.071660604773377	2.071660604785525	0.4738167348322305	-1.252405904169515	0.001159823410848052	0.1450342088815063
45.92	-0.113804792266819	0.125824244497248	3.109840792699212	-3.299973590336906	0.5988291098014831	2.481004339056391	1.176780363954689	-0.1931943003474022	0.005079690361518606	2.052551719374653	2.052551718668227	0.3961500893209526	1.370955732335404	-0.4392045116295119	0.2885208062256348	2.071099634857605	2.071099634785863	0.4737096781579995	-1.252676905589628	0.001151886784483772	0.1447102322339223
45.925	-0.1145104300047425	0.1257792510447587	3.110325218589746	-3.299882222280719	0.5990995823187155	2.480885276455846	1.175714483590997	-0.192897933147528	0.00521020288552824	2.05205667290483	2.052056672264259	0.396296052046686	1.369898911537039	-0.4388415053454297	0.2885251337564572	2.07040276729678	2.070402767133414	0.473572520651398	-1.252968236404248	0.001188326664685379	0.1444144657563121
45.93	-0.1152419398397368	0.1257472073475193	3.110849500935664	-3.299797776475948	0.599443742739	2.480767233878953	1.174490386950612	-0.1925848963178122	0.00530345508897464	2.051417040584111	2.051417040012928	0.3964454449771616	1.368692044073957	-0.4384853526437035	0.2884704422944065	2.069570181781093	2.069570181521189	0.4734055950518669	-1.25327628482689	0.00126552815217742	0.1441468854321835
45.935	-0.1159957994773884	0.1257239299847684	3.111410995336064	-3.299720244792367	0.5998609356830937	2.480649773856707	1.173114696027316	-0.1922555280396561	0.005364447578107294	2.050634442339373	2.0506344418396	0.3965973619469418	1.367337730744799	-0.4381387874511442	0.2883507585058633	2.068601956187563	2.068601955829183	0.4732095650665639	-1.253597057257707	0.001379052139120591	0.1439064056560775
45.94	-0.1167684283348895	0.1257043891038329	3.112006750441559	-3.299649634502815	0.6003504682885072	2.480532421382801	1.171594501465297	-0.1919102882657185	0.005399154552099018	2.049710633681376	2.049710633253717	0.3967510009861774	1.365838008392225	-0.4378041080665029	0.2881593600871996	2.067498070191371	2.067498069735576	0.4729853669040671	-1.253926325331311	0.00152374748921715	0.1436909377813409
45.945	-0.1175562828744211	0.1256828081667248	3.112633565767366	-3.299585968992993	0.6009116262815213	2.480414677780283	1.169937188837415	-0.191549783966567	0.005414376803664694	2.048647461239087	2.048647460883155	0.396905694035765	1.364194283567435	-0.4374831420423114	0.2878888949011195	2.066258410017184	2.066258409467913	0.4727341734971251	-1.254259746091438	0.001693859432084162	0.1434974550952109
45.95	-0.1183559811318611	0.1256528384519896	3.113288050584696	-3.299529288774366	0.6015436930404855	2.480296035215575	1.168150204246373	-0.1911747544663109	0.005417519616424441	2.047446803956778	2.047446803671307	0.3970609449629369	1.362407282683707	-0.4371772554231607	0.2875315764222857	2.06488278412514	2.06488278348897	0.472457347041674	-1.254593015286952	0.001883171474734526	0.1433221307382023
45.955	-0.1191644727767702	0.125607835312905	3.113966690690135	-3.299479652855111	0.6022459731522027	2.480175992525782	1.166240730076131	-0.190786008576664	0.005416265235513409	2.046110496215866	2.046110495998886	0.3972164740740285	1.36047702053482	-0.4368874137811834	0.2870794857751416	2.063370954037226	2.063370953323058	0.4721563624799059	-1.254922070707173	0.002085197211298215	0.143160571276426
45.96	-0.1199792125814779	0.125541171130086	3.114665921163475	-3.299437140078517	0.6030178152806533	2.480054071801482	1.164215345590227	-0.1903843499156948	0.005418206349856232	2.044640248986274	2.044640248835225	0.3973722544220221	1.358402794859843	-0.4366142586235751	0.2865249147623842	2.061722672408721	2.061722671627438	0.4718327171541647	-1.255243299328999	0.002293395424402784	0.1430080864264011
45.965	-0.1207982891991812	0.1254464929860482	3.115382199222466	-3.299401849879033	0.6038586288116149	2.479929834501107	1.162079763987305	-0.1899705367951536	0.005430536147182446	2.043037590098286	2.043037590010072	0.3975285236190483	1.356183201751203	-0.4363581550223272	0.285860652744666	2.059937715836256	2.059937715000343	0.4714878531306642	-1.255553695659202	0.002501366186065093	0.1428599118293911
45.97	-0.1216204980268134	0.1253178781977611	3.116112071776587	-3.299373902176787	0.6047678932481628	2.479802895814538	1.159838676996227	-0.18954529539269	0.00545984501721259	2.041303833635225	2.041303833606248	0.3976857649714464	1.353816152546442	-0.4361191957062753	0.285080163028006	2.058015904956136	2.058015904079246	0.4711231079499127	-1.255850958496129	0.002703001425260058	0.1427113434989865
45.975	-0.1224453725905868	0.1251498941012747	3.116852232473528	-3.299353436521563	0.6057451622395681	2.479672936061725	1.15749568833166	-0.1891093731271865	0.005512021541800888	2.039440076260229	2.039440076286376	0.3978446624525461	1.351298878465653	-0.4358971766104397	0.2841776499007284	2.055957111773425	2.055957110869877	0.4707396960004532	-1.256133541176424	0.002892584249192506	0.1425577920991056
45.98	-0.1232731848607681	0.1249375989277884	3.117599563079432	-3.29934061088535	0.6067900634051744	2.479539708227922	1.155053311043817	-0.18866360285144	0.005592226178795052	2.037447212533781	2.037447212610367	0.3980060380647418	1.348627935445205	-0.4356915700928108	0.2831480538493265	2.053761259700996	2.053761258785221	0.4703387131235284	-1.256400666335822	0.003064846138321139	0.1423947924580955
45.985	-0.1241049104256054	0.1246765276187065	3.11835115605736	-3.2993356005732	0.6079022932550937	2.479403041407343	1.15251301786265	-0.1882089494028586	0.005704897883491719	2.035325960751649	2.035325960873329	0.3981707786525906	1.34579924435367	-0.4355015171328633	0.2819870250597986	2.051428324109118	2.0514283231951	0.4699211524312675	-1.256652300962118	0.003214999022038791	0.1422180077946318
45.99	-0.1249421525973313	0.1243626936484798	3.119104319220907	-3.299338597498876	0.6090816064691724	2.479262840587549	1.149875339305287	-0.1877465230855918	0.005853762840088214	2.033076892187519	2.03307689234821	0.3983397586811614	1.342808194810036	-0.4353258468740382	0.2806909138442179	2.048958338619445	2.048958337720218	0.4694879221429653	-1.256889085937016	0.003338757922770671	0.1420232549705289
